<?xml version="1.0" encoding="UTF-8" standalone="no"?>
<!DOCTYPE svg PUBLIC "-//W3C//DTD SVG 1.1//EN"
 "http://www.w3.org/Graphics/SVG/1.1/DTD/svg11.dtd">
<!-- Generated by graphviz version 2.36.0 (20140111.2315)
 -->
<!-- Title: %3 Pages: 1 -->
<svg width="477pt" height="692pt"
 viewBox="0.00 0.00 477.00 692.00" xmlns="http://www.w3.org/2000/svg" xmlns:xlink="http://www.w3.org/1999/xlink">
<g id="graph0" class="graph" transform="scale(1 1) rotate(0) translate(4 688)">
<title>%3</title>
<polygon fill="white" stroke="none" points="-4,4 -4,-688 473,-688 473,4 -4,4"/>
<!-- O -->
<g id="node1" class="node"><title>O</title>
<ellipse fill="none" stroke="white" cx="114" cy="-666" rx="27" ry="18"/>
<text text-anchor="middle" x="114" y="-662.7" font-family="Times,serif" font-size="11.00" fill="grey">O</text>
</g>
<!-- a -->
<g id="node4" class="node"><title>a</title>
<ellipse fill="none" stroke="white" cx="228" cy="-594" rx="27" ry="18"/>
<text text-anchor="middle" x="228" y="-590.7" font-family="Times,serif" font-size="11.00" fill="grey">a</text>
</g>
<!-- O&#45;&gt;a -->
<g id="edge1" class="edge"><title>O&#45;&gt;a</title>
<path fill="none" stroke="black" d="M133.339,-653.125C154.302,-640.253 187.566,-619.828 208.567,-606.933"/>
</g>
<!-- b -->
<g id="node5" class="node"><title>b</title>
<ellipse fill="none" stroke="white" cx="197" cy="-306" rx="27" ry="18"/>
<text text-anchor="middle" x="197" y="-302.7" font-family="Times,serif" font-size="11.00" fill="grey">b</text>
</g>
<!-- O&#45;&gt;b -->
<g id="edge2" class="edge"><title>O&#45;&gt;b</title>
<path fill="none" stroke="black" d="M94.6615,-653.19C62.1367,-631.674 0,-582.751 0,-523 0,-523 0,-523 0,-449 0,-402.027 20.5207,-389.592 57,-360 91.1097,-332.33 141.197,-318.096 171.301,-311.616"/>
</g>
<!-- h -->
<g id="node2" class="node"><title>h</title>
<ellipse fill="none" stroke="white" cx="99" cy="-450" rx="27" ry="18"/>
<text text-anchor="middle" x="99" y="-446.7" font-family="Times,serif" font-size="11.00" fill="grey">h</text>
</g>
<!-- Kf133 -->
<g id="node23" class="node"><title>Kf133</title>
<ellipse fill="none" stroke="white" cx="99" cy="-378" rx="32.5542" ry="18"/>
<text text-anchor="middle" x="99" y="-373.8" font-family="Times,serif" font-size="14.00">Kf133</text>
</g>
<!-- h&#45;&gt;Kf133 -->
<g id="edge25" class="edge"><title>h&#45;&gt;Kf133</title>
<path fill="none" stroke="black" d="M99,-431.697C99,-420.846 99,-406.917 99,-396.104"/>
</g>
<!-- Krems185 -->
<g id="node24" class="node"><title>Krems185</title>
<ellipse fill="none" stroke="white" cx="197" cy="-378" rx="46.4238" ry="18"/>
<text text-anchor="middle" x="197" y="-373.8" font-family="Times,serif" font-size="14.00">Krems185</text>
</g>
<!-- h&#45;&gt;Krems185 -->
<g id="edge26" class="edge"><title>h&#45;&gt;Krems185</title>
<path fill="none" stroke="black" d="M116.975,-436.161C133.552,-424.32 158.177,-406.731 175.728,-394.194"/>
</g>
<!-- c -->
<g id="node3" class="node"><title>c</title>
<ellipse fill="none" stroke="white" cx="197" cy="-234" rx="27" ry="18"/>
<text text-anchor="middle" x="197" y="-230.7" font-family="Times,serif" font-size="11.00" fill="grey">c</text>
</g>
<!-- d -->
<g id="node7" class="node"><title>d</title>
<ellipse fill="none" stroke="white" cx="122" cy="-162" rx="27" ry="18"/>
<text text-anchor="middle" x="122" y="-158.7" font-family="Times,serif" font-size="11.00" fill="grey">d</text>
</g>
<!-- c&#45;&gt;d -->
<g id="edge16" class="edge"><title>c&#45;&gt;d</title>
<path fill="none" stroke="black" d="M181.823,-218.834C168.81,-206.69 150.16,-189.283 137.155,-177.144"/>
</g>
<!-- An74 -->
<g id="node15" class="node"><title>An74</title>
<ellipse fill="none" stroke="white" cx="197" cy="-162" rx="29.1427" ry="18"/>
<text text-anchor="middle" x="197" y="-157.8" font-family="Times,serif" font-size="14.00">An74</text>
</g>
<!-- c&#45;&gt;An74 -->
<g id="edge14" class="edge"><title>c&#45;&gt;An74</title>
<path fill="none" stroke="black" d="M197,-215.697C197,-204.846 197,-190.917 197,-180.104"/>
</g>
<!-- MuU151 -->
<g id="node16" class="node"><title>MuU151</title>
<ellipse fill="none" stroke="white" cx="287" cy="-162" rx="42.0652" ry="18"/>
<text text-anchor="middle" x="287" y="-157.8" font-family="Times,serif" font-size="14.00">MuU151</text>
</g>
<!-- c&#45;&gt;MuU151 -->
<g id="edge15" class="edge"><title>c&#45;&gt;MuU151</title>
<path fill="none" stroke="black" d="M213.928,-219.834C229.204,-207.952 251.666,-190.482 267.648,-178.052"/>
</g>
<!-- g -->
<g id="node6" class="node"><title>g</title>
<ellipse fill="none" stroke="white" cx="266" cy="-522" rx="27" ry="18"/>
<text text-anchor="middle" x="266" y="-518.7" font-family="Times,serif" font-size="11.00" fill="grey">g</text>
</g>
<!-- a&#45;&gt;g -->
<g id="edge7" class="edge"><title>a&#45;&gt;g</title>
<path fill="none" stroke="black" d="M236.813,-576.765C242.952,-565.456 251.106,-550.437 257.234,-539.147"/>
</g>
<!-- f -->
<g id="node9" class="node"><title>f</title>
<ellipse fill="none" stroke="white" cx="191" cy="-522" rx="27" ry="18"/>
<text text-anchor="middle" x="191" y="-518.7" font-family="Times,serif" font-size="11.00" fill="grey">f</text>
</g>
<!-- a&#45;&gt;f -->
<g id="edge6" class="edge"><title>a&#45;&gt;f</title>
<path fill="none" stroke="black" d="M219.418,-576.765C213.441,-565.456 205.502,-550.437 199.535,-539.147"/>
</g>
<!-- Au318 -->
<g id="node10" class="node"><title>Au318</title>
<ellipse fill="none" stroke="white" cx="34" cy="-234" rx="34.2708" ry="18"/>
<text text-anchor="middle" x="34" y="-229.8" font-family="Times,serif" font-size="14.00">Au318</text>
</g>
<!-- a&#45;&gt;Au318 -->
<g id="edge3" class="edge"><title>a&#45;&gt;Au318</title>
<path fill="none" stroke="black" d="M202.769,-586.885C151.086,-572.688 38,-532.332 38,-451 38,-451 38,-451 38,-377 38,-331.868 35.956,-278.698 34.7903,-252.045"/>
</g>
<!-- Go325 -->
<g id="node11" class="node"><title>Go325</title>
<ellipse fill="none" stroke="white" cx="352" cy="-234" rx="34.2708" ry="18"/>
<text text-anchor="middle" x="352" y="-229.8" font-family="Times,serif" font-size="14.00">Go325</text>
</g>
<!-- a&#45;&gt;Go325 -->
<g id="edge4" class="edge"><title>a&#45;&gt;Go325</title>
<path fill="none" stroke="black" d="M251.996,-585.553C298.857,-569.348 398,-526.181 398,-451 398,-451 398,-451 398,-377 398,-329.577 374.494,-277.392 361.088,-251.486"/>
</g>
<!-- Gr314 -->
<g id="node12" class="node"><title>Gr314</title>
<ellipse fill="none" stroke="white" cx="437" cy="-234" rx="32.5542" ry="18"/>
<text text-anchor="middle" x="437" y="-229.8" font-family="Times,serif" font-size="14.00">Gr314</text>
</g>
<!-- a&#45;&gt;Gr314 -->
<g id="edge5" class="edge"><title>a&#45;&gt;Gr314</title>
<path fill="none" stroke="black" d="M253.923,-588.049C309.681,-575.741 436,-538.229 436,-451 436,-451 436,-451 436,-377 436,-331.884 436.511,-278.708 436.802,-252.049"/>
</g>
<!-- b&#45;&gt;c -->
<g id="edge13" class="edge"><title>b&#45;&gt;c</title>
<path fill="none" stroke="black" d="M197,-287.697C197,-276.846 197,-262.917 197,-252.104"/>
</g>
<!-- b&#45;&gt;Au318 -->
<g id="edge8" class="edge"><title>b&#45;&gt;Au318</title>
<path fill="none" stroke="black" d="M174.677,-295.414C144.597,-282.495 91.1806,-259.556 59.5352,-245.966"/>
</g>
<!-- b&#45;&gt;Go325 -->
<g id="edge10" class="edge"><title>b&#45;&gt;Go325</title>
<path fill="none" stroke="black" d="M218.879,-295.119C247.335,-282.268 296.936,-259.868 326.894,-246.338"/>
</g>
<!-- b&#45;&gt;Gr314 -->
<g id="edge11" class="edge"><title>b&#45;&gt;Gr314</title>
<path fill="none" stroke="black" d="M222.299,-299.284C260.234,-290.476 333.923,-272.449 395,-252 400.52,-250.152 406.358,-247.952 411.869,-245.758"/>
</g>
<!-- Ba96 -->
<g id="node13" class="node"><title>Ba96</title>
<ellipse fill="none" stroke="white" cx="271" cy="-234" rx="28.1657" ry="18"/>
<text text-anchor="middle" x="271" y="-229.8" font-family="Times,serif" font-size="14.00">Ba96</text>
</g>
<!-- b&#45;&gt;Ba96 -->
<g id="edge9" class="edge"><title>b&#45;&gt;Ba96</title>
<path fill="none" stroke="black" d="M211.975,-290.834C224.729,-278.77 242.973,-261.512 255.793,-249.385"/>
</g>
<!-- Sg524 -->
<g id="node14" class="node"><title>Sg524</title>
<ellipse fill="none" stroke="white" cx="119" cy="-234" rx="32.5672" ry="18"/>
<text text-anchor="middle" x="119" y="-229.8" font-family="Times,serif" font-size="14.00">Sg524</text>
</g>
<!-- b&#45;&gt;Sg524 -->
<g id="edge12" class="edge"><title>b&#45;&gt;Sg524</title>
<path fill="none" stroke="black" d="M181.59,-291.17C168.27,-279.217 149.071,-261.987 135.455,-249.768"/>
</g>
<!-- Mu22405 -->
<g id="node21" class="node"><title>Mu22405</title>
<ellipse fill="none" stroke="white" cx="306" cy="-378" rx="44.2507" ry="18"/>
<text text-anchor="middle" x="306" y="-373.8" font-family="Times,serif" font-size="14.00">Mu22405</text>
</g>
<!-- g&#45;&gt;Mu22405 -->
<g id="edge23" class="edge"><title>g&#45;&gt;Mu22405</title>
<path fill="none" stroke="black" d="M268.748,-504.056C271.879,-485.991 277.542,-456.65 285,-432 288.726,-419.685 294.083,-406.21 298.454,-395.929"/>
</g>
<!-- Wi3181 -->
<g id="node22" class="node"><title>Wi3181</title>
<ellipse fill="none" stroke="white" cx="332" cy="-450" rx="38.3726" ry="18"/>
<text text-anchor="middle" x="332" y="-445.8" font-family="Times,serif" font-size="14.00">Wi3181</text>
</g>
<!-- g&#45;&gt;Wi3181 -->
<g id="edge24" class="edge"><title>g&#45;&gt;Wi3181</title>
<path fill="none" stroke="black" d="M279.997,-506.155C290.895,-494.597 305.987,-478.59 317.106,-466.797"/>
</g>
<!-- e -->
<g id="node8" class="node"><title>e</title>
<ellipse fill="none" stroke="white" cx="78" cy="-90" rx="27" ry="18"/>
<text text-anchor="middle" x="78" y="-86.7" font-family="Times,serif" font-size="11.00" fill="grey">e</text>
</g>
<!-- d&#45;&gt;e -->
<g id="edge18" class="edge"><title>d&#45;&gt;e</title>
<path fill="none" stroke="black" d="M112.016,-145.116C104.815,-133.66 95.1366,-118.263 87.9448,-106.821"/>
</g>
<!-- Mu11475 -->
<g id="node17" class="node"><title>Mu11475</title>
<ellipse fill="none" stroke="white" cx="167" cy="-90" rx="44.2653" ry="18"/>
<text text-anchor="middle" x="167" y="-85.8" font-family="Times,serif" font-size="14.00">Mu11475</text>
</g>
<!-- d&#45;&gt;Mu11475 -->
<g id="edge17" class="edge"><title>d&#45;&gt;Mu11475</title>
<path fill="none" stroke="black" d="M132.211,-145.116C139.368,-133.983 148.918,-119.127 156.202,-107.797"/>
</g>
<!-- Er16 -->
<g id="node18" class="node"><title>Er16</title>
<ellipse fill="none" stroke="white" cx="33" cy="-18" rx="26.9483" ry="18"/>
<text text-anchor="middle" x="33" y="-13.8" font-family="Times,serif" font-size="14.00">Er16</text>
</g>
<!-- e&#45;&gt;Er16 -->
<g id="edge19" class="edge"><title>e&#45;&gt;Er16</title>
<path fill="none" stroke="black" d="M67.7888,-73.1159C60.4243,-61.66 50.526,-46.2627 43.1708,-34.8212"/>
</g>
<!-- Mu28315 -->
<g id="node19" class="node"><title>Mu28315</title>
<ellipse fill="none" stroke="white" cx="123" cy="-18" rx="44.2507" ry="18"/>
<text text-anchor="middle" x="123" y="-13.8" font-family="Times,serif" font-size="14.00">Mu28315</text>
</g>
<!-- e&#45;&gt;Mu28315 -->
<g id="edge20" class="edge"><title>e&#45;&gt;Mu28315</title>
<path fill="none" stroke="black" d="M88.2112,-73.1159C95.3683,-61.9827 104.918,-47.127 112.202,-35.7973"/>
</g>
<!-- f&#45;&gt;h -->
<g id="edge22" class="edge"><title>f&#45;&gt;h</title>
<path fill="none" stroke="black" d="M173.696,-507.834C157.247,-495.319 132.649,-476.603 116.227,-464.107"/>
</g>
<!-- Krems299 -->
<g id="node20" class="node"><title>Krems299</title>
<ellipse fill="none" stroke="white" cx="191" cy="-450" rx="46.4238" ry="18"/>
<text text-anchor="middle" x="191" y="-445.8" font-family="Times,serif" font-size="14.00">Krems299</text>
</g>
<!-- f&#45;&gt;Krems299 -->
<g id="edge21" class="edge"><title>f&#45;&gt;Krems299</title>
<path fill="none" stroke="black" d="M191,-503.697C191,-492.846 191,-478.917 191,-468.104"/>
</g>
<!-- Krems299&#45;&gt;Mu22405 -->
<g id="edge28" class="edge"><title>Krems299&#45;&gt;Mu22405</title>
<path fill="none" stroke="black" d="M214.828,-434.496C234.565,-422.482 262.474,-405.494 282.202,-393.485"/>
</g>
<!-- Krems185&#45;&gt;b -->
<g id="edge27" class="edge"><title>Krems185&#45;&gt;b</title>
<path fill="none" stroke="black" d="M197,-359.697C197,-348.846 197,-334.917 197,-324.104"/>
</g>
</g>
</svg>
